# xmcd
#
# Track frame offsets:
#	150
#	13870
#	24280
#	33571
#
# Disc length: 666 seconds
#
# Revision: 1
# Processed by: cddbd v1.5.2PL0 Copyright (c) Steve Scherf et al.
# Submitted via: audiograbber 1.83.01
#
DISCID=26029804
DTITLE=Pirate Love - Death Surf Negro Spirituals [EP]
DYEAR=2007
DGENRE=Death Surf
TTITLE0=A Kiss Hello
TTITLE1=Sniper Messiah
TTITLE2=Tranquilizer
TTITLE3=Broken Soul
EXTD=
EXTT0=
EXTT1=
EXTT2=
EXTT3=
PLAYORDER=
